<svg width="30" height="30" viewBox="0 0 30 30" fill="none" xmlns="http://www.w3.org/2000/svg">
<path d="M15 30C23.2843 30 30 23.2843 30 15C30 6.71573 23.2843 0 15 0C6.71573 0 0 6.71573 0 15C0 23.2843 6.71573 30 15 30Z" fill="#FFCC4D"/>
<path d="M22.7794 19.6908C22.6311 19.5567 22.4094 19.5483 22.2502 19.6667C22.2177 19.6908 18.9819 22.0833 15.0002 22.0833C11.0286 22.0833 7.78189 19.6908 7.75023 19.6667C7.59106 19.5483 7.36939 19.5583 7.22106 19.6908C7.07356 19.8242 7.04023 20.0442 7.14273 20.2142C7.25023 20.3933 9.82356 24.5833 15.0002 24.5833C20.1769 24.5833 22.7511 20.3933 22.8577 20.2142C22.9602 20.0433 22.9277 19.8242 22.7794 19.6908Z" fill="#664500"/>
<path d="M14.9998 22.1592C14.8764 22.1592 14.7573 22.15 14.6348 22.1458V25.9092H15.3639V22.145C15.2431 22.1492 15.1231 22.1592 14.9998 22.1592Z" fill="#65471B"/>
<path d="M18.3333 21.6667C18.3466 21.6633 17.1249 21.9817 16.2949 22.0717C15.9899 22.1067 15.6808 22.135 15.3641 22.1458V25.91H16.6666C17.5833 25.91 18.3333 25.16 18.3333 24.2433V21.6667ZM11.6666 21.6667C11.6533 21.6633 12.8749 21.9817 13.7049 22.0717C14.0099 22.1067 14.3191 22.135 14.6358 22.1458V25.91H13.3333C12.4166 25.91 11.6666 25.16 11.6666 24.2433V21.6667Z" fill="white"/>
<path d="M22.7791 19.6908C22.6308 19.5567 22.4091 19.5483 22.25 19.6667C22.225 19.685 20.3675 21.0567 17.7408 21.725C17.3716 21.8192 16.1875 22.0833 15.0025 22.0842C13.8158 22.0842 12.6283 21.8192 12.2591 21.725C9.63247 21.0567 7.77497 19.685 7.74997 19.6667C7.59164 19.5483 7.36914 19.5567 7.2208 19.6908C7.07247 19.8242 7.03997 20.0433 7.14247 20.2142C7.2233 20.3492 8.7133 22.77 11.6666 23.9483V22.4242C11.6533 22.4208 12.875 22.7392 13.705 22.8292C14.01 22.8642 14.3191 22.8925 14.6358 22.9033C14.7575 22.9075 14.8766 22.9167 15 22.9167C15.1233 22.9167 15.2425 22.9075 15.365 22.9033C15.6816 22.8925 15.9908 22.865 16.2958 22.8292C17.1258 22.7392 18.3475 22.4208 18.3341 22.4242V23.9483C21.2875 22.77 22.7775 20.3492 22.8583 20.2142C22.96 20.0433 22.9275 19.8242 22.7791 19.6908ZM22.1866 11.6867C22.1866 13.115 21.405 14.2733 20.44 14.2733C19.4758 14.2733 18.6933 13.115 18.6933 11.6867C18.6933 10.2583 19.475 9.1 20.44 9.1C21.405 9.1 22.1866 10.2583 22.1866 11.6867ZM7.8808 11.6867C7.8808 13.115 8.66247 14.2733 9.62747 14.2733C10.5916 14.2733 11.3741 13.115 11.3741 11.6867C11.3741 10.2583 10.5925 9.1 9.62747 9.1C8.66247 9.1 7.8808 10.2583 7.8808 11.6867Z" fill="#65471B"/>
<path d="M29.0068 8.0225C28.8643 7.88417 27.951 8.25083 27.0268 7.78C25.1202 6.80833 20.3018 5.87083 17.1652 8.09333C16.8293 8.33083 15.426 8.37083 15.0335 8.35417C14.641 8.37167 13.2377 8.33167 12.9018 8.09333C9.76601 5.87083 4.94768 6.80833 3.04101 7.78C2.11684 8.25083 1.20351 7.88417 1.06101 8.0225C0.855176 8.22167 0.855176 9.01917 1.06184 9.21917C1.26684 9.41833 2.29268 9.64833 2.49684 10.2458C2.70268 10.8442 2.70434 14.3775 4.34101 15.5992C5.87351 16.7425 9.44851 17.0867 11.7143 15.7975C13.691 14.6733 13.6218 12.3067 13.9843 10.8967C14.1135 10.3942 14.4777 10.1408 15.0343 10.1408C15.591 10.1408 15.9552 10.3942 16.0843 10.8967C16.4468 12.3058 16.3768 14.6733 18.3543 15.7975C20.6202 17.0858 24.1952 16.7417 25.7268 15.5992C27.3643 14.3783 27.366 10.8442 27.571 10.2458C27.7752 9.64833 28.801 9.4175 29.006 9.21917C29.2127 9.01917 29.2135 8.22167 29.0068 8.0225ZM12.1785 11.0642C12.1143 11.985 11.9502 13.7533 10.8477 14.3808C10.1718 14.7658 9.29101 15 8.36934 15H8.36851C7.34768 15 5.93268 14.7108 5.37934 14.2983C4.68768 13.7825 4.42434 11.6592 4.32518 10.865C4.26184 10.3592 4.09184 9.12333 4.64851 8.93333C5.53184 8.6325 6.76434 8.3975 8.02518 8.3975C8.60268 8.3975 10.5427 8.43333 11.4877 9.015C12.3252 9.52917 12.2143 10.5575 12.1785 11.0642ZM25.7435 10.8533C25.6443 11.6483 25.381 13.7825 24.6893 14.2983C24.136 14.7108 22.721 15 21.7002 15H21.6993C20.7768 15 19.8968 14.7658 19.2202 14.3808C18.1177 13.7542 17.9535 11.9967 17.8893 11.0758C17.8543 10.5692 17.7427 9.53333 18.5802 9.01917C19.526 8.4375 21.4652 8.3975 22.0427 8.3975C23.3035 8.3975 24.5352 8.62833 25.4193 8.92917C25.976 9.11917 25.8068 10.3475 25.7435 10.8533Z" fill="#292F33"/>
</svg>
