<svg width="35" height="36" viewBox="0 0 35 36" fill="none" xmlns="http://www.w3.org/2000/svg">
<path d="M6.61846 22.1693C8.58683 21.6675 9.59253 18.9463 8.86476 16.0911C8.137 13.236 5.95135 11.3281 3.98299 11.8299C2.01462 12.3316 1.00892 15.0529 1.73669 17.908C2.46445 20.7632 4.6501 22.671 6.61846 22.1693Z" fill="#D79E84"/>
<path d="M33.2637 17.9093C33.9915 15.0541 32.9858 12.3328 31.0174 11.8311C29.049 11.3294 26.8634 13.2372 26.1356 16.0923C25.4078 18.9475 26.4135 21.6688 28.3819 22.1705C30.3503 22.6722 32.5359 20.7644 33.2637 17.9093Z" fill="#D79E84"/>
<path d="M18.4849 34.9998H16.5149C10.0149 34.9998 3.71191 30.0178 3.71191 23.0438C3.71191 19.0588 5.18891 17.0658 5.18891 17.0658C5.18891 17.0658 4.69691 15.0728 4.69691 13.0808C4.69691 7.10282 10.9999 2.12082 17.4999 2.12082C23.9999 2.12082 30.3029 8.09882 30.3029 13.0808C30.3029 15.0738 29.8109 17.0658 29.8109 17.0658C29.8109 17.0658 31.2879 19.0588 31.2879 23.0438C31.2879 30.0178 24.9849 34.9998 18.4849 34.9998Z" fill="#BF6952"/>
<path d="M21.7421 0.169824C21.7421 0.169824 16.4391 -0.891176 14.3181 2.29082C12.1971 5.47282 18.5601 3.35182 18.5601 3.35182C18.5601 3.35182 19.6211 0.169824 21.7421 0.169824Z" fill="#BF6952"/>
<path d="M29.167 15.3788C29.167 11.5718 26.08 8.48482 22.273 8.48482C20.419 8.48482 18.739 9.22082 17.5 10.4108C16.261 9.21982 14.581 8.48482 12.727 8.48482C8.92001 8.48482 5.83301 11.5718 5.83301 15.3788C5.83301 17.6878 6.97301 19.7268 8.71501 20.9778C8.22601 22.1898 7.95401 23.5238 7.95401 24.9238C7.95401 30.4888 12.228 33.9388 17.499 33.9388C22.77 33.9388 27.044 30.4888 27.044 24.9238C27.044 23.5228 26.772 22.1898 26.283 20.9778C28.027 19.7268 29.167 17.6878 29.167 15.3788Z" fill="#D79E84"/>
<path d="M12.5 19.9998C13.6046 19.9998 14.5 18.6567 14.5 16.9998C14.5 15.343 13.6046 13.9998 12.5 13.9998C11.3954 13.9998 10.5 15.343 10.5 16.9998C10.5 18.6567 11.3954 19.9998 12.5 19.9998Z" fill="#292F33"/>
<path d="M22.5 19.9998C23.6046 19.9998 24.5 18.6567 24.5 16.9998C24.5 15.343 23.6046 13.9998 22.5 13.9998C21.3954 13.9998 20.5 15.343 20.5 16.9998C20.5 18.6567 21.3954 19.9998 22.5 19.9998Z" fill="#292F33"/>
<path d="M17.5001 31.4998C20.2151 31.4998 22.5271 30.1198 23.3951 28.1908C23.7541 27.3928 23.1451 26.4998 22.2381 26.4998H12.7621C11.8551 26.4998 11.2461 27.3928 11.6051 28.1908C12.4731 30.1198 14.7851 31.4998 17.5001 31.4998Z" fill="#642116"/>
<path d="M16 23.0608C16.5523 23.0608 17 22.5858 17 21.9998C17 21.4139 16.5523 20.9388 16 20.9388C15.4477 20.9388 15 21.4139 15 21.9998C15 22.5858 15.4477 23.0608 16 23.0608Z" fill="#642116"/>
<path d="M19 22.9998C19.5523 22.9998 20 22.5521 20 21.9998C20 21.4475 19.5523 20.9998 19 20.9998C18.4477 20.9998 18 21.4475 18 21.9998C18 22.5521 18.4477 22.9998 19 22.9998Z" fill="#642116"/>
<path d="M6.374 23.2448C6.972 21.9518 7.25 20.9218 7.25 19.9998C7.25 18.6918 6.646 17.4398 6.16 16.4338C5.886 15.8658 5.603 15.2778 5.603 14.9998C5.603 14.8068 5.745 14.2068 5.87 13.6768C6.257 12.0408 6.738 10.0038 6.133 9.02782C5.983 8.78682 5.699 8.49982 5.191 8.49982C3.24 8.49982 0.25 12.7558 0.25 17.9998C0.25 20.5758 0.424 22.1768 0.805 23.1118L0 35.9998H7L6.163 23.5588C6.248 23.4658 6.32 23.3618 6.374 23.2448Z" fill="#BF6952"/>
<path d="M6.374 23.2448C6.972 21.9518 7.25 20.9218 7.25 19.9998C7.25 18.6918 6.646 17.4398 6.16 16.4338C5.886 15.8658 5.603 15.2778 5.603 14.9998C5.603 14.8068 5.745 14.2068 5.87 13.6768C6.257 12.0408 6.738 10.0038 6.133 9.02782C6.069 8.92582 5.975 8.81882 5.856 8.72482C5.122 10.0658 4.697 11.5388 4.697 13.0808C4.697 15.0728 4.5 19.0588 4.5 23.0438C4.5 23.3588 6.5 35.9998 6.5 35.9998H7L6.161 23.5308C6.24 23.4418 6.323 23.3558 6.374 23.2448Z" fill="#9B3C07"/>
<path d="M5.19124 9.49982C3.81824 9.49982 1.07324 13.1748 1.07324 17.9998C1.07324 20.5418 1.25824 22.1738 1.62324 22.8508C1.87824 23.3258 2.60824 23.3208 3.31124 23.3138L3.54324 23.3128C4.70324 23.3128 5.52824 23.0298 5.65524 22.7548C6.17424 21.6338 6.42624 20.7318 6.42624 19.9998C6.42624 18.9638 5.90724 17.8878 5.44924 16.9388C5.07524 16.1628 4.77924 15.5498 4.77924 14.9998C4.77924 14.6818 4.88724 14.2088 5.07824 13.4008C5.34224 12.2848 5.83324 10.2068 5.47424 9.62982C5.45124 9.59082 5.39424 9.49982 5.19124 9.49982Z" fill="#D79E84"/>
<path d="M35 35.9998L34.195 23.1118C34.576 22.1768 34.75 20.5768 34.75 17.9998C34.75 12.7558 31.76 8.49982 29.809 8.49982C29.301 8.49982 29.017 8.78682 28.867 9.02782C28.261 10.0038 28.743 12.0408 29.13 13.6768C29.255 14.2068 29.397 14.8068 29.397 14.9998C29.397 15.2778 29.114 15.8658 28.84 16.4338C28.354 17.4398 27.75 18.6928 27.75 19.9998C27.75 20.9218 28.028 21.9518 28.627 23.2448C28.681 23.3618 28.753 23.4658 28.838 23.5588L28 35.9998H35Z" fill="#BF6952"/>
<path d="M30.5 23.0438C30.5 19.0588 30.303 15.0728 30.303 13.0808C30.303 11.7068 29.81 10.2588 28.979 8.87982C28.937 8.92982 28.897 8.97982 28.867 9.02782C28.261 10.0038 28.743 12.0408 29.13 13.6768C29.255 14.2068 29.397 14.8068 29.397 14.9998C29.397 15.2778 29.114 15.8658 28.84 16.4338C28.354 17.4398 27.75 18.6928 27.75 19.9998C27.75 20.9218 28.028 21.9518 28.627 23.2448C28.678 23.3548 28.761 23.4418 28.84 23.5308L28 35.9998H28.5C28.5 35.9998 30.5 23.3588 30.5 23.0438Z" fill="#9B3C07"/>
<path d="M29.8092 9.49982C29.6062 9.49982 29.5492 9.59082 29.5252 9.62982C29.1672 10.2068 29.6582 12.2848 29.9212 13.4008C30.1122 14.2088 30.2202 14.6818 30.2202 14.9998C30.2202 15.5498 29.9242 16.1628 29.5502 16.9388C29.0922 17.8878 28.5732 18.9638 28.5732 19.9998C28.5732 20.7318 28.8252 21.6338 29.3432 22.7548C29.4702 23.0288 30.2942 23.3128 31.4552 23.3128L31.6872 23.3138C32.3892 23.3208 33.1192 23.3258 33.3762 22.8508C33.7412 22.1748 33.9262 20.5428 33.9262 17.9998C33.9262 13.1748 31.1822 9.49982 29.8092 9.49982Z" fill="#D79E84"/>
</svg>
