<svg width="24" height="24" viewBox="0 0 24 24" fill="none" xmlns="http://www.w3.org/2000/svg">
<rect width="24" height="24" fill="#434545"/>
<g id="Step 10" clip-path="url(#clip0_0_1)">
<rect width="1440" height="1024" transform="translate(-667 -731)" fill="#121212"/>
<rect id="box" x="-243.517" y="-65.0483" width="298.551" height="189.082" rx="20" fill="#1D1D1D"/>
<rect id="box_2" x="-243.517" y="-65.0483" width="298.551" height="189.082" rx="20" fill="#1D1D1D"/>
<rect id="Rectangle 10" x="-667" y="-731" width="1440" height="1016" fill="black" fill-opacity="0.78"/>
<rect id="box_3" x="-197" y="-431" width="500" height="493" rx="20" fill="#1D1D1D"/>
<g id="Group 8">
<rect id="Rectangle 2" x="-35" y="-10" width="179" height="42" rx="21" fill="#20BD5F"/>
<g id="Emoji">
<path id="Vector" d="M7.6875 4.56701C7.61345 4.64107 7.55725 4.73033 7.5103 4.82819L7.50501 4.8229L0.0888247 21.5292L0.096098 21.5364C-0.0414346 21.8029 0.188668 22.3451 0.660114 22.8172C1.13156 23.2886 1.67376 23.5188 1.94023 23.3812L1.94684 23.3878L18.6531 15.971L18.6478 15.965C18.745 15.9187 18.8343 15.8625 18.909 15.7872C19.9418 14.7543 18.2669 11.4053 15.1692 8.30684C12.07 5.20839 8.72098 3.5342 7.6875 4.56701Z" fill="#DD2E44"/>
<path id="Vector_2" d="M8.59601 7.5504L0.275287 21.1093L0.0888247 21.5291L0.0960981 21.5364C-0.0414346 21.8029 0.188668 22.3451 0.660114 22.8172C0.813516 22.9706 0.972869 23.087 1.12892 23.1855L11.2409 10.8565L8.59601 7.5504Z" fill="#EA596E"/>
<path id="Vector_3" d="M15.2154 8.25526C18.3032 11.3445 20.0178 14.6373 19.0431 15.6106C18.0692 16.5852 14.7763 14.8714 11.6865 11.7835C8.59794 8.6943 6.88407 5.40013 7.85804 4.42616C8.83267 3.45219 12.1255 5.16606 15.2154 8.25526Z" fill="#A0041E"/>
<path id="Vector_4" d="M12.2916 8.6143C12.16 8.72076 11.9881 8.7763 11.8063 8.75647C11.2324 8.69431 10.7497 8.49463 10.4118 8.17922C10.0541 7.84531 9.87753 7.39701 9.9258 6.94804C10.0104 6.15987 10.8012 5.43651 12.1495 5.58197C12.6738 5.63818 12.9079 5.46957 12.9158 5.3889C12.9251 5.30889 12.7327 5.094 12.2083 5.03713C11.6344 4.97498 11.1517 4.77529 10.8131 4.45989C10.4554 4.12598 10.2782 3.67768 10.3272 3.22871C10.4131 2.44054 11.2033 1.71717 12.5502 1.8633C12.9323 1.9043 13.134 1.82561 13.2193 1.7747C13.2874 1.73304 13.3145 1.69337 13.3172 1.67023C13.3251 1.59022 13.1353 1.37532 12.6097 1.31846C12.2467 1.27879 11.9835 0.95347 12.0238 0.589802C12.0628 0.226795 12.3875 -0.0357074 12.7518 0.00396553C14.0987 0.148772 14.7176 1.02356 14.6323 1.81239C14.5464 2.60188 13.7562 3.32392 12.408 3.17912C12.0258 3.13746 11.8261 3.21681 11.7402 3.26772C11.6721 3.30872 11.6443 3.34905 11.6416 3.37153C11.6331 3.4522 11.8241 3.66643 12.3498 3.7233C13.6967 3.86877 14.3156 4.74289 14.2303 5.53172C14.145 6.31989 13.3549 7.04326 12.0073 6.89713C11.6251 6.85613 11.4241 6.93548 11.3382 6.98573C11.2694 7.02805 11.2429 7.06772 11.2403 7.0902C11.2317 7.17021 11.4228 7.38511 11.9478 7.44197C12.3101 7.48164 12.574 7.80762 12.5336 8.17063C12.5151 8.3518 12.4232 8.50851 12.2916 8.6143Z" fill="#AA8DD8"/>
<path id="Vector_5" d="M20.2738 14.7292C21.5784 14.3609 22.4783 14.9428 22.6926 15.7065C22.9068 16.4695 22.4426 17.4356 21.1387 17.8026C20.6296 17.9454 20.4768 18.1887 20.4973 18.2661C20.5198 18.3441 20.7783 18.4724 21.2862 18.3289C22.5901 17.9619 23.49 18.5438 23.7042 19.3068C23.9198 20.0705 23.4543 21.0352 22.1497 21.4029C21.6412 21.5457 21.4878 21.7897 21.5103 21.867C21.5321 21.9444 21.79 22.0727 22.2985 21.9299C22.6489 21.8313 23.0152 22.0357 23.1137 22.3868C23.2116 22.7385 23.0073 23.1035 22.6555 23.2027C21.3523 23.5697 20.4517 22.9891 20.2361 22.2248C20.0219 21.4617 20.4867 20.497 21.792 20.1294C22.3011 19.9859 22.4539 19.7432 22.4314 19.6652C22.4102 19.5878 22.1523 19.4589 21.6445 19.6017C20.3393 19.9694 19.44 19.3888 19.2251 18.6238C19.0102 17.8607 19.4751 16.896 20.7797 16.5277C21.2875 16.3856 21.4402 16.1409 21.4191 16.0642C21.3966 15.9862 21.1394 15.8579 20.6309 16.0007C20.2791 16.0999 19.9148 15.895 19.8156 15.5438C19.7171 15.1934 19.9221 14.8284 20.2738 14.7292Z" fill="#77B255"/>
<path id="Vector_6" d="M15.2086 12.9459C15.0142 12.9459 14.8225 12.8606 14.6916 12.698C14.4635 12.4123 14.5104 11.9964 14.7947 11.7683C14.9389 11.6526 18.3772 8.95219 23.2365 9.64713C23.5981 9.6987 23.8494 10.0333 23.7978 10.395C23.7462 10.756 23.4143 11.0099 23.0493 10.9557C18.7561 10.346 15.6523 12.7767 15.6219 12.8011C15.4989 12.899 15.3534 12.9459 15.2086 12.9459Z" fill="#AA8DD8"/>
<path id="Vector_7" d="M3.80508 10.1953C3.74226 10.1953 3.67812 10.186 3.61465 10.1675C3.26486 10.0624 3.0665 9.69407 3.17163 9.34429C3.92079 6.84952 4.59986 2.86835 3.7654 1.83024C3.67217 1.71255 3.53133 1.59683 3.20866 1.6213C2.58844 1.66891 2.64729 2.97745 2.64795 2.99067C2.67572 3.355 2.40198 3.67239 2.03831 3.6995C1.66869 3.72198 1.3566 3.45353 1.32949 3.0892C1.26138 2.17738 1.54504 0.421194 3.10948 0.302837C3.80772 0.249939 4.38761 0.492605 4.7969 1.00174C6.36464 2.95299 4.7731 8.60968 4.43852 9.72449C4.35256 10.0108 4.0894 10.1953 3.80508 10.1953Z" fill="#77B255"/>
<path id="Vector_8" d="M16.861 6.88919C17.4087 6.88919 17.8528 6.44514 17.8528 5.89737C17.8528 5.3496 17.4087 4.90555 16.861 4.90555C16.3132 4.90555 15.8691 5.3496 15.8691 5.89737C15.8691 6.44514 16.3132 6.88919 16.861 6.88919Z" fill="#5C913B"/>
<path id="Vector_9" d="M1.32243 12.8401C2.05279 12.8401 2.64486 12.2481 2.64486 11.5177C2.64486 10.7873 2.05279 10.1953 1.32243 10.1953C0.592072 10.1953 0 10.7873 0 11.5177C0 12.2481 0.592072 12.8401 1.32243 12.8401Z" fill="#9266CC"/>
<path id="Vector_10" d="M21.4899 13.5013C22.0376 13.5013 22.4817 13.0573 22.4817 12.5095C22.4817 11.9618 22.0376 11.5177 21.4899 11.5177C20.9421 11.5177 20.498 11.9618 20.498 12.5095C20.498 13.0573 20.9421 13.5013 21.4899 13.5013Z" fill="#5C913B"/>
<path id="Vector_11" d="M15.5387 21.4359C16.0865 21.4359 16.5305 20.9919 16.5305 20.4441C16.5305 19.8963 16.0865 19.4523 15.5387 19.4523C14.9909 19.4523 14.5469 19.8963 14.5469 20.4441C14.5469 20.9919 14.9909 21.4359 15.5387 21.4359Z" fill="#5C913B"/>
<path id="Vector_12" d="M18.5138 3.58312C19.2442 3.58312 19.8363 2.99105 19.8363 2.26069C19.8363 1.53033 19.2442 0.938263 18.5138 0.938263C17.7835 0.938263 17.1914 1.53033 17.1914 2.26069C17.1914 2.99105 17.7835 3.58312 18.5138 3.58312Z" fill="#FFCC4D"/>
<path id="Vector_13" d="M21.4899 6.22798C22.0376 6.22798 22.4817 5.78393 22.4817 5.23616C22.4817 4.68839 22.0376 4.24434 21.4899 4.24434C20.9421 4.24434 20.498 4.68839 20.498 5.23616C20.498 5.78393 20.9421 6.22798 21.4899 6.22798Z" fill="#FFCC4D"/>
<path id="Vector_14" d="M19.5055 8.87283C20.0533 8.87283 20.4973 8.42878 20.4973 7.88101C20.4973 7.33324 20.0533 6.88919 19.5055 6.88919C18.9577 6.88919 18.5137 7.33324 18.5137 7.88101C18.5137 8.42878 18.9577 8.87283 19.5055 8.87283Z" fill="#FFCC4D"/>
<path id="Vector_15" d="M4.9596 16.1462C5.50736 16.1462 5.95142 15.7021 5.95142 15.1544C5.95142 14.6066 5.50736 14.1626 4.9596 14.1626C4.41183 14.1626 3.96777 14.6066 3.96777 15.1544C3.96777 15.7021 4.41183 16.1462 4.9596 16.1462Z" fill="#FFCC4D"/>
</g>
</g>
</g>
<defs>
<clipPath id="clip0_0_1">
<rect width="1440" height="1024" fill="white" transform="translate(-667 -731)"/>
</clipPath>
</defs>
</svg>
