<svg width="30" height="30" viewBox="0 0 30 30" fill="none" xmlns="http://www.w3.org/2000/svg">
<path d="M4.05558 7.59637C4.83983 7.04823 6.02204 7.15335 6.72619 7.73486L5.91859 6.56099C5.26866 5.63408 5.50143 4.63124 6.42918 3.98048C7.35693 3.33223 9.98583 5.07509 9.98583 5.07509C9.33007 4.139 9.45271 2.95262 10.3888 2.29602C11.3249 1.64192 12.6164 1.86802 13.2722 2.80578L21.9656 15.0868L20.8577 25.8285L11.6111 22.4562L3.54582 10.4981C2.88421 9.55615 3.11281 8.25714 4.05558 7.59637Z" fill="#EF9645"/>
<path d="M2.24845 14.4285C2.24845 14.4285 1.30402 13.0519 2.68146 12.1083C4.05723 11.1647 5.00083 12.5405 5.00083 12.5405L9.38178 18.9296C9.53278 18.6776 9.69798 18.429 9.88236 18.1837L3.80193 9.31753C3.80193 9.31753 2.85833 7.94176 4.23494 6.99816C5.61071 6.05456 6.55431 7.43033 6.55431 7.43033L12.2735 15.7709C12.4862 15.5974 12.704 15.423 12.9284 15.252L6.29818 5.58151C6.29818 5.58151 5.35458 4.20574 6.73118 3.26214C8.10695 2.31853 9.05056 3.69431 9.05056 3.69431L15.6808 13.3631C15.9244 13.2137 16.1655 13.0844 16.4075 12.9476L10.2102 3.91039C10.2102 3.91039 9.26664 2.53462 10.6424 1.59102C12.0182 0.647419 12.9618 2.02319 12.9618 2.02319L19.5144 11.5793L20.5106 13.0327C16.3824 15.8643 15.9895 21.1914 18.3481 24.6312C18.8195 25.3195 19.5078 24.8482 19.5078 24.8482C16.677 20.7192 17.5413 16.0796 21.6703 13.2488L20.453 7.15668C20.453 7.15668 19.9983 5.55147 21.6027 5.09594C23.2079 4.64124 23.6634 6.24645 23.6634 6.24645L25.0692 10.4213C25.6266 12.0766 26.2198 13.726 27.0048 15.2862C29.2216 19.6913 27.8975 25.166 23.7177 28.0335C19.1582 31.1597 12.9251 29.9975 9.79809 25.4388L2.24845 14.4285Z" fill="#FFDC5D"/>
<path d="M10.0117 26.6978C6.67444 26.6978 3.30217 23.3255 3.30217 19.9883C3.30217 19.5269 2.96428 19.154 2.50291 19.154C2.04154 19.154 1.63356 19.5269 1.63356 19.9883C1.63356 24.9942 5.00583 28.3664 10.0117 28.3664C10.473 28.3664 10.846 27.9584 10.846 27.4971C10.846 27.0357 10.473 26.6978 10.0117 26.6978Z" fill="#5DADEC"/>
<path d="M5.84015 28.3314C3.33723 28.3314 1.66861 26.6628 1.66861 24.1598C1.66861 23.6985 1.29568 23.3255 0.834307 23.3255C0.372935 23.3255 0 23.6985 0 24.1598C0 27.4971 2.50292 30 5.84015 30C6.30152 30 6.67445 29.6271 6.67445 29.1657C6.67445 28.7043 6.30152 28.3314 5.84015 28.3314ZM20.0234 1.63356C19.5628 1.63356 19.1891 2.00733 19.1891 2.46787C19.1891 2.9284 19.5628 3.30217 20.0234 3.30217C23.3606 3.30217 26.6978 6.2965 26.6978 9.97663C26.6978 10.4372 27.0716 10.8109 27.5321 10.8109C27.9927 10.8109 28.3664 10.4372 28.3664 9.97663C28.3664 5.37626 25.0292 1.63356 20.0234 1.63356Z" fill="#5DADEC"/>
<path d="M24.1949 0C23.7343 0 23.3606 0.338729 23.3606 0.799266C23.3606 1.2598 23.7343 1.66861 24.1949 1.66861C26.6978 1.66861 28.3314 3.52495 28.3314 5.80511C28.3314 6.26564 28.7394 6.63941 29.2007 6.63941C29.6621 6.63941 30 6.26564 30 5.80511C30 2.60387 27.5321 0 24.1949 0Z" fill="#5DADEC"/>
</svg>
