<svg width="30" height="30" viewBox="0 0 30 30" fill="none" xmlns="http://www.w3.org/2000/svg">
<path d="M30 15C30 23.2842 23.2842 30 15 30C6.71583 30 0 23.2842 0 15C0 6.71583 6.71583 0 15 0C23.2842 0 30 6.71583 30 15Z" fill="#FFCC4D"/>
<path fill-rule="evenodd" clip-rule="evenodd" d="M1.03316 9.18166C1.23316 9.38083 2.2315 9.97916 2.43066 10.5775C2.63066 11.175 3.03066 14.5642 4.229 15.5617C5.46483 16.5883 10.1265 16.2067 11.019 15.7617C13.0165 14.7658 13.2615 11.9858 13.6148 10.5775C13.814 9.78 15.0123 9.78 15.0123 9.78C15.0123 9.78 16.2107 9.78 16.4107 10.5767C16.764 11.9858 17.0107 14.7658 19.0065 15.7608C19.8998 16.2067 24.5615 16.5892 25.799 15.5625C26.9957 14.565 27.3948 11.1758 27.5948 10.5775C27.7932 9.98 28.7932 9.38166 28.9923 9.1825C29.1932 8.98333 29.1932 8.18583 28.9923 7.98583C28.5932 7.5875 23.8807 7.2325 18.8065 7.78666C17.794 7.8975 17.409 8.185 15.0115 8.185C12.6157 8.185 12.229 7.89666 11.2173 7.78666C6.1465 7.23166 1.43316 7.58666 1.03316 7.985C0.833997 8.18416 0.833997 8.9825 1.03316 9.18166Z" fill="#292F33"/>
<path d="M22.7794 19.6908C22.6311 19.5567 22.4094 19.5483 22.2502 19.6667C22.2177 19.6908 18.9819 22.0833 15.0002 22.0833C11.0286 22.0833 7.78189 19.6908 7.75023 19.6667C7.59106 19.5483 7.36939 19.5583 7.22106 19.6908C7.07356 19.8242 7.04023 20.0442 7.14273 20.2142C7.25023 20.3933 9.82356 24.5833 15.0002 24.5833C20.1769 24.5833 22.7511 20.3933 22.8577 20.2142C22.9602 20.0433 22.9277 19.8242 22.7794 19.6908Z" fill="#664500"/>
</svg>
