<svg width="16" height="21" viewBox="0 0 16 21" fill="none" xmlns="http://www.w3.org/2000/svg">
<path d="M6.75011 1.66221C7.52431 1.66221 8.15164 2.28954 8.15164 3.06374V3.06654L9.55317 0.260681C10.3274 0.260681 10.9547 0.888006 10.9547 1.66221V2.3826L12.3562 1.52206C13.1304 1.52206 13.7578 2.14938 13.7578 2.92359V4.90535L14.3184 10.091H6.72656L6.75011 1.66221Z" fill="#EF9645"/>
<path d="M0.653253 9.09256C1.42746 8.75003 2.53354 9.20917 3.31616 10.3192C3.83024 11.048 3.9816 12.0857 4.65658 12.1939C4.91446 12.2348 5.34838 12.0184 5.34838 11.4107V2.52275C5.34838 2.52275 5.34838 1.40153 6.4696 1.40153C7.59082 1.40153 7.59082 2.52275 7.59082 2.52275V9.04435C7.59082 9.02809 8.15144 9.00847 8.15144 8.99838V1.12122C8.15144 1.12122 8.15143 0 9.27266 0C10.3939 0 10.3939 1.12122 10.3939 1.12122V8.9995C10.3939 9.00903 10.9545 9.02249 10.9545 9.03818V2.3826C10.9545 2.3826 10.9545 1.26138 12.0757 1.26138C13.1969 1.26138 13.1969 2.3826 13.1969 2.3826V9.46761C13.1969 9.53376 13.7576 9.60833 13.7576 9.69073V4.90535C13.7576 4.90535 13.7576 3.78413 14.8788 3.78413C16 3.78413 16 4.90535 16 4.90535V13.4547C16 17.1699 12.9878 20.182 9.27266 20.182C6.59574 20.182 4.75413 18.7256 3.72484 17.2153C2.85197 15.9343 2.59914 14.6045 2.54532 14.2025C2.54532 14.2025 2.47636 13.3734 1.89725 12.5964C1.07371 11.4925 0.495721 10.8271 0.145339 10.4291C-0.0323754 10.2278 -0.205044 9.4721 0.653253 9.09256Z" fill="#FFDC5D"/>
</svg>
