<svg width="192" height="31" viewBox="0 0 192 31" fill="none" xmlns="http://www.w3.org/2000/svg">
<path d="M61.3079 24.198C59.8119 24.198 58.4992 23.8753 57.3699 23.23C56.2552 22.5847 55.3972 21.6607 54.7959 20.458C54.1945 19.2553 53.8939 17.8473 53.8939 16.234C53.8939 14.6207 54.1945 13.22 54.7959 12.032C55.3972 10.8293 56.2552 9.90533 57.3699 9.26C58.4992 8.61467 59.8119 8.292 61.3079 8.292C62.2759 8.292 63.1852 8.43867 64.0359 8.732C64.8865 9.01067 65.6419 9.42133 66.3019 9.964C66.4925 10.1107 66.6245 10.2647 66.6979 10.426C66.7712 10.5873 66.8079 10.7853 66.8079 11.02C66.8079 11.3427 66.7199 11.614 66.5439 11.834C66.3679 12.054 66.1552 12.164 65.9059 12.164C65.6125 12.164 65.3119 12.0613 65.0039 11.856C64.3732 11.3867 63.7865 11.064 63.2439 10.888C62.7012 10.6973 62.0999 10.602 61.4399 10.602C59.9145 10.602 58.7559 11.0787 57.9639 12.032C57.1865 12.9853 56.7979 14.386 56.7979 16.234C56.7979 18.0967 57.1865 19.5047 57.9639 20.458C58.7559 21.4113 59.9145 21.888 61.4399 21.888C62.0705 21.888 62.6499 21.7927 63.1779 21.602C63.7205 21.4113 64.3292 21.0887 65.0039 20.634C65.1505 20.546 65.2972 20.4727 65.4439 20.414C65.5905 20.3553 65.7445 20.326 65.9059 20.326C66.1552 20.326 66.3679 20.436 66.5439 20.656C66.7199 20.876 66.8079 21.1473 66.8079 21.47C66.8079 21.69 66.7712 21.888 66.6979 22.064C66.6245 22.2253 66.4925 22.3793 66.3019 22.526C65.6419 23.0687 64.8865 23.4867 64.0359 23.78C63.1852 24.0587 62.2759 24.198 61.3079 24.198ZM73.7372 24.176C72.6372 24.176 71.6692 23.9487 70.8332 23.494C70.0119 23.0393 69.3739 22.3867 68.9192 21.536C68.4645 20.6853 68.2372 19.6953 68.2372 18.566C68.2372 17.4367 68.4645 16.454 68.9192 15.618C69.3739 14.7673 70.0119 14.1147 70.8332 13.66C71.6692 13.2053 72.6372 12.978 73.7372 12.978C74.8372 12.978 75.7979 13.2053 76.6192 13.66C77.4552 14.1147 78.0932 14.7673 78.5332 15.618C78.9879 16.454 79.2152 17.4367 79.2152 18.566C79.2152 19.6953 78.9879 20.6853 78.5332 21.536C78.0932 22.3867 77.4552 23.0393 76.6192 23.494C75.7979 23.9487 74.8372 24.176 73.7372 24.176ZM73.7152 22.042C74.6099 22.042 75.2919 21.7487 75.7612 21.162C76.2305 20.5753 76.4652 19.71 76.4652 18.566C76.4652 17.4367 76.2305 16.5787 75.7612 15.992C75.2919 15.3907 74.6172 15.09 73.7372 15.09C72.8572 15.09 72.1752 15.3907 71.6912 15.992C71.2219 16.5787 70.9872 17.4367 70.9872 18.566C70.9872 19.71 71.2219 20.5753 71.6912 21.162C72.1605 21.7487 72.8352 22.042 73.7152 22.042ZM90.4615 8.38C90.8721 8.38 91.2095 8.49733 91.4735 8.732C91.7375 8.96667 91.8695 9.27467 91.8695 9.656V22.812C91.8695 23.208 91.7448 23.5233 91.4955 23.758C91.2461 23.9927 90.9161 24.11 90.5055 24.11C90.0948 24.11 89.7648 23.9927 89.5155 23.758C89.2661 23.5233 89.1415 23.208 89.1415 22.812V22.262C88.8188 22.8633 88.3495 23.3327 87.7335 23.67C87.1321 24.0073 86.4428 24.176 85.6655 24.176C84.7415 24.176 83.9128 23.9413 83.1795 23.472C82.4608 23.0027 81.8961 22.3427 81.4855 21.492C81.0895 20.6267 80.8915 19.6367 80.8915 18.522C80.8915 17.4073 81.0895 16.432 81.4855 15.596C81.8961 14.76 82.4608 14.1147 83.1795 13.66C83.8981 13.2053 84.7268 12.978 85.6655 12.978C86.4428 12.978 87.1321 13.1393 87.7335 13.462C88.3348 13.7847 88.7968 14.2393 89.1195 14.826V9.612C89.1195 9.24533 89.2368 8.952 89.4715 8.732C89.7208 8.49733 90.0508 8.38 90.4615 8.38ZM86.3915 22.042C87.2715 22.042 87.9461 21.7413 88.4155 21.14C88.8995 20.5387 89.1415 19.6807 89.1415 18.566C89.1415 17.4513 88.8995 16.6007 88.4155 16.014C87.9461 15.4127 87.2788 15.112 86.4135 15.112C85.5335 15.112 84.8515 15.4053 84.3675 15.992C83.8835 16.5787 83.6415 17.422 83.6415 18.522C83.6415 19.6367 83.8835 20.502 84.3675 21.118C84.8515 21.734 85.5261 22.042 86.3915 22.042ZM103.212 21.052C103.462 21.052 103.66 21.1473 103.806 21.338C103.968 21.5287 104.048 21.7853 104.048 22.108C104.048 22.5627 103.777 22.944 103.234 23.252C102.736 23.5307 102.171 23.758 101.54 23.934C100.91 24.0953 100.308 24.176 99.7364 24.176C98.0057 24.176 96.6344 23.6773 95.6224 22.68C94.6104 21.6827 94.1044 20.3187 94.1044 18.588C94.1044 17.488 94.3244 16.5127 94.7644 15.662C95.2044 14.8113 95.8204 14.1513 96.6124 13.682C97.419 13.2127 98.3284 12.978 99.3404 12.978C100.308 12.978 101.152 13.1907 101.87 13.616C102.589 14.0413 103.146 14.6427 103.542 15.42C103.938 16.1973 104.136 17.114 104.136 18.17C104.136 18.8007 103.858 19.116 103.3 19.116H96.8104C96.8984 20.128 97.1844 20.876 97.6684 21.36C98.1524 21.8293 98.8564 22.064 99.7804 22.064C100.25 22.064 100.66 22.0053 101.012 21.888C101.379 21.7707 101.79 21.6093 102.244 21.404C102.684 21.1693 103.007 21.052 103.212 21.052ZM99.4064 14.914C98.6584 14.914 98.057 15.1487 97.6024 15.618C97.1624 16.0873 96.8984 16.762 96.8104 17.642H101.782C101.753 16.7473 101.533 16.0727 101.122 15.618C100.712 15.1487 100.14 14.914 99.4064 14.914ZM112.392 13.022C112.773 12.9927 113.074 13.0733 113.294 13.264C113.514 13.4547 113.624 13.7407 113.624 14.122C113.624 14.518 113.529 14.8113 113.338 15.002C113.147 15.1927 112.803 15.3173 112.304 15.376L111.644 15.442C110.779 15.53 110.141 15.8233 109.73 16.322C109.334 16.8207 109.136 17.444 109.136 18.192V22.812C109.136 23.2373 109.004 23.5673 108.74 23.802C108.476 24.022 108.146 24.132 107.75 24.132C107.354 24.132 107.024 24.022 106.76 23.802C106.511 23.5673 106.386 23.2373 106.386 22.812V14.298C106.386 13.8873 106.511 13.572 106.76 13.352C107.024 13.132 107.347 13.022 107.728 13.022C108.109 13.022 108.417 13.132 108.652 13.352C108.887 13.5573 109.004 13.858 109.004 14.254V15.134C109.283 14.4887 109.693 13.99 110.236 13.638C110.793 13.286 111.409 13.088 112.084 13.044L112.392 13.022ZM118.594 24.176C116.996 24.176 115.705 23.8607 114.722 23.23C114.253 22.9513 114.018 22.5553 114.018 22.042C114.018 21.7487 114.099 21.514 114.26 21.338C114.422 21.1473 114.62 21.052 114.854 21.052C115.104 21.052 115.448 21.1693 115.888 21.404C116.358 21.624 116.783 21.7927 117.164 21.91C117.56 22.0273 118.059 22.086 118.66 22.086C119.276 22.086 119.753 21.9833 120.09 21.778C120.442 21.5727 120.618 21.2867 120.618 20.92C120.618 20.6707 120.545 20.4727 120.398 20.326C120.266 20.1793 120.017 20.0473 119.65 19.93C119.298 19.798 118.756 19.6513 118.022 19.49C116.717 19.226 115.778 18.852 115.206 18.368C114.649 17.884 114.37 17.2167 114.37 16.366C114.37 15.7207 114.561 15.1413 114.942 14.628C115.324 14.1 115.844 13.6967 116.504 13.418C117.179 13.1247 117.942 12.978 118.792 12.978C119.408 12.978 120.002 13.0587 120.574 13.22C121.146 13.3667 121.66 13.5867 122.114 13.88C122.584 14.1733 122.818 14.562 122.818 15.046C122.818 15.3393 122.738 15.5887 122.576 15.794C122.415 15.9847 122.217 16.08 121.982 16.08C121.821 16.08 121.66 16.0507 121.498 15.992C121.352 15.9187 121.161 15.816 120.926 15.684C120.501 15.464 120.134 15.3027 119.826 15.2C119.518 15.0827 119.137 15.024 118.682 15.024C118.14 15.024 117.707 15.134 117.384 15.354C117.076 15.574 116.922 15.8747 116.922 16.256C116.922 16.6227 117.084 16.9013 117.406 17.092C117.729 17.2827 118.352 17.4733 119.276 17.664C120.259 17.8693 121.029 18.104 121.586 18.368C122.144 18.632 122.54 18.962 122.774 19.358C123.024 19.754 123.148 20.26 123.148 20.876C123.148 21.8733 122.73 22.6727 121.894 23.274C121.073 23.8753 119.973 24.176 118.594 24.176ZM131.67 12.978C134.193 12.978 135.454 14.452 135.454 17.4V22.812C135.454 23.2227 135.329 23.5453 135.08 23.78C134.845 24.0147 134.515 24.132 134.09 24.132C133.665 24.132 133.327 24.0147 133.078 23.78C132.829 23.5453 132.704 23.2227 132.704 22.812V17.4C132.704 16.6227 132.543 16.058 132.22 15.706C131.912 15.3393 131.421 15.156 130.746 15.156C129.954 15.156 129.316 15.4053 128.832 15.904C128.363 16.4027 128.128 17.07 128.128 17.906V22.812C128.128 23.2227 128.003 23.5453 127.754 23.78C127.505 24.0147 127.167 24.132 126.742 24.132C126.317 24.132 125.979 24.0147 125.73 23.78C125.495 23.5453 125.378 23.2227 125.378 22.812V9.656C125.378 9.27467 125.503 8.96667 125.752 8.732C126.016 8.49733 126.353 8.38 126.764 8.38C127.175 8.38 127.505 8.49 127.754 8.71C128.003 8.93 128.128 9.23067 128.128 9.612V14.738C128.495 14.166 128.979 13.7333 129.58 13.44C130.196 13.132 130.893 12.978 131.67 12.978ZM143.153 24.176C142.053 24.176 141.085 23.9487 140.249 23.494C139.428 23.0393 138.79 22.3867 138.335 21.536C137.881 20.6853 137.653 19.6953 137.653 18.566C137.653 17.4367 137.881 16.454 138.335 15.618C138.79 14.7673 139.428 14.1147 140.249 13.66C141.085 13.2053 142.053 12.978 143.153 12.978C144.253 12.978 145.214 13.2053 146.035 13.66C146.871 14.1147 147.509 14.7673 147.949 15.618C148.404 16.454 148.631 17.4367 148.631 18.566C148.631 19.6953 148.404 20.6853 147.949 21.536C147.509 22.3867 146.871 23.0393 146.035 23.494C145.214 23.9487 144.253 24.176 143.153 24.176ZM143.131 22.042C144.026 22.042 144.708 21.7487 145.177 21.162C145.647 20.5753 145.881 19.71 145.881 18.566C145.881 17.4367 145.647 16.5787 145.177 15.992C144.708 15.3907 144.033 15.09 143.153 15.09C142.273 15.09 141.591 15.3907 141.107 15.992C140.638 16.5787 140.403 17.4367 140.403 18.566C140.403 19.71 140.638 20.5753 141.107 21.162C141.577 21.7487 142.251 22.042 143.131 22.042ZM159.393 13.022C159.819 13.022 160.156 13.1393 160.405 13.374C160.655 13.6087 160.779 13.924 160.779 14.32V22.856C160.779 23.2373 160.647 23.5453 160.383 23.78C160.134 24.0147 159.804 24.132 159.393 24.132C158.997 24.132 158.682 24.022 158.447 23.802C158.213 23.582 158.095 23.2813 158.095 22.9V22.35C157.758 22.9367 157.303 23.3913 156.731 23.714C156.159 24.022 155.514 24.176 154.795 24.176C152.155 24.176 150.835 22.6947 150.835 19.732V14.32C150.835 13.924 150.96 13.6087 151.209 13.374C151.459 13.1393 151.789 13.022 152.199 13.022C152.625 13.022 152.962 13.1393 153.211 13.374C153.461 13.6087 153.585 13.924 153.585 14.32V19.754C153.585 20.5167 153.739 21.0813 154.047 21.448C154.355 21.8147 154.839 21.998 155.499 21.998C156.262 21.998 156.871 21.7487 157.325 21.25C157.795 20.7367 158.029 20.062 158.029 19.226V14.32C158.029 13.924 158.154 13.6087 158.403 13.374C158.653 13.1393 158.983 13.022 159.393 13.022ZM167.536 24.176C165.937 24.176 164.646 23.8607 163.664 23.23C163.194 22.9513 162.96 22.5553 162.96 22.042C162.96 21.7487 163.04 21.514 163.202 21.338C163.363 21.1473 163.561 21.052 163.796 21.052C164.045 21.052 164.39 21.1693 164.83 21.404C165.299 21.624 165.724 21.7927 166.106 21.91C166.502 22.0273 167 22.086 167.602 22.086C168.218 22.086 168.694 21.9833 169.032 21.778C169.384 21.5727 169.56 21.2867 169.56 20.92C169.56 20.6707 169.486 20.4727 169.34 20.326C169.208 20.1793 168.958 20.0473 168.592 19.93C168.24 19.798 167.697 19.6513 166.964 19.49C165.658 19.226 164.72 18.852 164.148 18.368C163.59 17.884 163.312 17.2167 163.312 16.366C163.312 15.7207 163.502 15.1413 163.884 14.628C164.265 14.1 164.786 13.6967 165.446 13.418C166.12 13.1247 166.883 12.978 167.734 12.978C168.35 12.978 168.944 13.0587 169.516 13.22C170.088 13.3667 170.601 13.5867 171.056 13.88C171.525 14.1733 171.76 14.562 171.76 15.046C171.76 15.3393 171.679 15.5887 171.518 15.794C171.356 15.9847 171.158 16.08 170.924 16.08C170.762 16.08 170.601 16.0507 170.44 15.992C170.293 15.9187 170.102 15.816 169.868 15.684C169.442 15.464 169.076 15.3027 168.768 15.2C168.46 15.0827 168.078 15.024 167.624 15.024C167.081 15.024 166.648 15.134 166.326 15.354C166.018 15.574 165.864 15.8747 165.864 16.256C165.864 16.6227 166.025 16.9013 166.348 17.092C166.67 17.2827 167.294 17.4733 168.218 17.664C169.2 17.8693 169.97 18.104 170.528 18.368C171.085 18.632 171.481 18.962 171.716 19.358C171.965 19.754 172.09 20.26 172.09 20.876C172.09 21.8733 171.672 22.6727 170.836 23.274C170.014 23.8753 168.914 24.176 167.536 24.176ZM182.833 21.052C183.083 21.052 183.281 21.1473 183.427 21.338C183.589 21.5287 183.669 21.7853 183.669 22.108C183.669 22.5627 183.398 22.944 182.855 23.252C182.357 23.5307 181.792 23.758 181.161 23.934C180.531 24.0953 179.929 24.176 179.357 24.176C177.627 24.176 176.255 23.6773 175.243 22.68C174.231 21.6827 173.725 20.3187 173.725 18.588C173.725 17.488 173.945 16.5127 174.385 15.662C174.825 14.8113 175.441 14.1513 176.233 13.682C177.04 13.2127 177.949 12.978 178.961 12.978C179.929 12.978 180.773 13.1907 181.491 13.616C182.21 14.0413 182.767 14.6427 183.163 15.42C183.559 16.1973 183.757 17.114 183.757 18.17C183.757 18.8007 183.479 19.116 182.921 19.116H176.431C176.519 20.128 176.805 20.876 177.289 21.36C177.773 21.8293 178.477 22.064 179.401 22.064C179.871 22.064 180.281 22.0053 180.633 21.888C181 21.7707 181.411 21.6093 181.865 21.404C182.305 21.1693 182.628 21.052 182.833 21.052ZM179.027 14.914C178.279 14.914 177.678 15.1487 177.223 15.618C176.783 16.0873 176.519 16.762 176.431 17.642H181.403C181.374 16.7473 181.154 16.0727 180.743 15.618C180.333 15.1487 179.761 14.914 179.027 14.914Z" fill="white"/>
<path d="M5.08935 7.59635C6.0735 7.04821 7.55706 7.15334 8.44071 7.73485L7.42724 6.56098C6.61165 5.63406 6.90375 4.63123 8.06799 3.98047C9.23222 3.33221 12.5312 5.07508 12.5312 5.07508C11.7083 4.13899 11.8622 2.9526 13.0369 2.296C14.2116 1.64191 15.8323 1.868 16.6553 2.80576L27.5647 15.0868L26.1743 25.8285L14.5707 22.4562L4.44965 10.4981C3.6194 9.55614 3.90627 8.25712 5.08935 7.59635Z" fill="#EF9645"/>
<path d="M2.82158 14.4285C2.82158 14.4285 1.6364 13.0519 3.36495 12.1083C5.09141 11.1647 6.27554 12.5405 6.27554 12.5405L11.7732 18.9296C11.9627 18.6776 12.17 18.429 12.4014 18.1837L4.77104 9.31753C4.77104 9.31753 3.58691 7.94176 5.31442 6.99816C7.04088 6.05456 8.225 7.43033 8.225 7.43033L15.402 15.7709C15.669 15.5974 15.9422 15.423 16.2239 15.252L7.90358 5.58151C7.90358 5.58151 6.71946 4.20574 8.44696 3.26214C10.1734 2.31853 11.3575 3.69431 11.3575 3.69431L19.6778 13.3631C19.9836 13.2137 20.2861 13.0844 20.5898 12.9476L12.8128 3.91039C12.8128 3.91039 11.6287 2.53462 13.3552 1.59102C15.0816 0.647419 16.2658 2.02319 16.2658 2.02319L24.4887 11.5793L25.7388 13.0327C20.5583 15.8643 20.0652 21.1914 23.025 24.6312C23.6166 25.3195 24.4803 24.8482 24.4803 24.8482C20.9279 20.7192 22.0126 16.0796 27.1941 13.2488L25.6665 7.15668C25.6665 7.15668 25.0959 5.55147 27.1093 5.09594C29.1236 4.64124 29.6953 6.24645 29.6953 6.24645L31.4594 10.4213C32.1588 12.0766 32.9032 13.726 33.8884 15.2862C36.6702 19.6913 35.0087 25.166 29.7633 28.0335C24.0416 31.1597 16.2197 29.9975 12.2956 25.4388L2.82158 14.4285Z" fill="#FFDC5D"/>
<path d="M12.5636 26.6978C8.37574 26.6978 4.14387 23.3256 4.14387 19.9883C4.14387 19.527 3.71985 19.154 3.14087 19.154C2.5619 19.154 2.04993 19.527 2.04993 19.9883C2.04993 24.9942 6.28179 28.3664 12.5636 28.3664C13.1426 28.3664 13.6106 27.9585 13.6106 27.4971C13.6106 27.0357 13.1426 26.6978 12.5636 26.6978Z" fill="#5DADEC"/>
<path d="M7.32881 28.3314C4.18789 28.3314 2.09395 26.6628 2.09395 24.1599C2.09395 23.6985 1.62595 23.3256 1.04697 23.3256C0.467997 23.3256 0 23.6985 0 24.1599C0 27.4971 3.14092 30 7.32881 30C7.90779 30 8.37578 29.6271 8.37578 29.1657C8.37578 28.7043 7.90779 28.3314 7.32881 28.3314ZM25.1274 1.63358C24.5494 1.63358 24.0804 2.00734 24.0804 2.46788C24.0804 2.92842 24.5494 3.30219 25.1274 3.30219C29.3152 3.30219 33.5031 6.29652 33.5031 9.97664C33.5031 10.4372 33.9722 10.8109 34.5501 10.8109C35.128 10.8109 35.5971 10.4372 35.5971 9.97664C35.5971 5.37628 31.4092 1.63358 25.1274 1.63358Z" fill="#5DADEC"/>
<path d="M30.3622 0C29.7843 0 29.3152 0.338729 29.3152 0.799266C29.3152 1.2598 29.7843 1.66861 30.3622 1.66861C33.5031 1.66861 35.5531 3.52495 35.5531 5.80511C35.5531 6.26564 36.0651 6.63941 36.6441 6.63941C37.223 6.63941 37.6471 6.26564 37.6471 5.80511C37.6471 2.60387 34.5501 0 30.3622 0Z" fill="#5DADEC"/>
</svg>
