<svg width="18" height="18" viewBox="0 0 18 18" fill="none" xmlns="http://www.w3.org/2000/svg">
<g clip-path="url(#clip0_15_1498)">
<path d="M14.25 8.25H12.975C12.975 8.805 12.855 9.3225 12.6525 9.7875L13.575 10.71C13.995 9.975 14.25 9.1425 14.25 8.25ZM11.235 8.3775C11.235 8.3325 11.25 8.295 11.25 8.25V3.75C11.25 2.505 10.245 1.5 9 1.5C7.755 1.5 6.75 2.505 6.75 3.75V3.885L11.235 8.3775ZM3.2025 2.25L2.25 3.2025L6.7575 7.71V8.25C6.7575 9.495 7.755 10.5 9 10.5C9.165 10.5 9.33 10.4775 9.4875 10.44L10.7325 11.685C10.2 11.9325 9.6075 12.075 9 12.075C6.93 12.075 5.025 10.5 5.025 8.25H3.75C3.75 10.8075 5.79 12.9225 8.25 13.29V15.75H9.75V13.29C10.4325 13.1925 11.0775 12.9525 11.655 12.615L14.7975 15.75L15.75 14.7975L3.2025 2.25Z" fill="white"/>
<rect x="3.21289" y="2.28218" width="17.706" height="1.3526" transform="rotate(44.9525 3.21289 2.28218)" fill="#F44336"/>
</g>
<defs>
<clipPath id="clip0_15_1498">
<rect width="18" height="18" fill="white"/>
</clipPath>
</defs>
</svg>
