<svg width="42" height="42" viewBox="0 0 42 42" fill="none" xmlns="http://www.w3.org/2000/svg">
<g clip-path="url(#clip0_48_494)">
<path d="M32.7116 19.3269H29.8674C29.8674 20.5649 29.5997 21.7194 29.148 22.7567L31.2058 24.8145C32.1428 23.1749 32.7116 21.3178 32.7116 19.3269ZM25.9858 19.6113C25.9858 19.5109 26.0193 19.4272 26.0193 19.3269V9.2884C26.0193 6.51109 23.7774 4.26917 21.0001 4.26917C18.2228 4.26917 15.9808 6.51109 15.9808 9.2884V9.58955L25.9858 19.6113ZM8.06719 5.94224L5.94238 8.06705L15.9976 18.1222V19.3269C15.9976 22.1042 18.2228 24.3461 21.0001 24.3461C21.3682 24.3461 21.7362 24.2959 22.0876 24.2122L24.8649 26.9895C23.677 27.5417 22.3553 27.8596 21.0001 27.8596C16.3824 27.8596 12.1328 24.3461 12.1328 19.3269H9.28854C9.28854 25.032 13.8393 29.7501 19.327 30.5699V36.0576H22.6732V30.5699C24.1957 30.3524 25.6345 29.817 26.9228 29.0642L33.933 36.0576L36.0578 33.9328L8.06719 5.94224Z" fill="white"/>
<rect x="8.08984" y="6.01404" width="39.4981" height="3.01733" transform="rotate(44.9525 8.08984 6.01404)" fill="#F44336"/>
</g>
<defs>
<clipPath id="clip0_48_494">
<rect width="40.1538" height="40.1538" fill="white" transform="translate(0.922852 0.922974)"/>
</clipPath>
</defs>
</svg>
